<?xml version="1.0" encoding="utf-8"?>
<!-- Generator: Adobe Illustrator 25.3.1, SVG Export Plug-In . SVG Version: 6.00 Build 0)  -->
<svg version="1.0" id="レイヤー_1" xmlns="http://www.w3.org/2000/svg" xmlns:xlink="http://www.w3.org/1999/xlink" x="0px"
	 y="0px" viewBox="0 0 169 55" style="enable-background:new 0 0 169 55;" xml:space="preserve">
<style type="text/css">
	.st0{fill:#B8CCD4;}
</style>
<g>
	<path class="st0" d="M15.93,18.82c1.63-2.58,4.06-4.02,7.13-4.02c6.95,0,10.73,5.21,10.73,14.73c0,8.48-4.66,14.54-11.19,14.54
		c-3.03,0-5.32-1.34-6.85-3.77h-0.19c0.47,2.08,0.7,3.92,0.7,7.49v7.19H8.33V15.3h7.93v0.15c0,0.94-0.19,2.38-0.47,3.37H15.93z
		 M25.72,29.53c0-5.56-1.96-8.58-4.99-8.58c-2.89,0-4.62,3.03-4.62,8.63c0,5.66,1.54,8.43,4.85,8.43
		C23.76,38.02,25.72,35.04,25.72,29.53z"/>
	<path class="st0" d="M46.28,7.36c0,3.03-2.1,4.91-4.62,4.91s-4.48-1.74-4.48-4.91c0-3.08,1.96-4.76,4.48-4.76
		S46.28,4.29,46.28,7.36z M45.63,43.57H37.7V15.3h7.93V43.57z"/>
	<path class="st0" d="M73.61,35.44c-2.19,6.9-6.9,8.63-11.98,8.63c-7.74,0-12.08-5.06-12.08-14.19c0-9.28,4.71-15.08,12.31-15.08
		c6.06,0,9.89,2.68,11.52,9.72l-7.27,1.93c-0.61-4.12-2.15-6-4.24-6c-2.33,0-4.38,1.88-4.38,8.88c0,6.65,1.77,9.03,4.48,9.03
		c1.68,0,3.36-1.19,4.01-5.16L73.61,35.44z"/>
	<path class="st0" d="M86.43,34.05c0,2.73,1.21,3.67,3.87,3.67c0.84,0,1.73-0.2,2.24-0.4v5.95c-1.4,0.5-3.45,0.79-5.22,0.79
		c-5.04,0-8.58-2.78-8.58-8.68V21.25h-3.82V15.3h3.82v-3.77l7.69-4.71v8.48h5.74v5.95h-5.74V34.05z"/>
	<path class="st0" d="M119.07,15.3v28.28h-7.41v-3.82h-0.09c-1.54,2.93-4.29,4.32-7.65,4.32c-4.76,0-8.44-3.03-8.44-9.62V15.3h7.93
		v17.36c0,3.82,1.12,5.16,3.68,5.16c2.28,0,4.06-1.49,4.06-5.16V15.3H119.07z"/>
	<path class="st0" d="M131.01,22.74c0.75-5.36,3.08-8.09,6.81-8.09c0.7,0,1.54,0.05,2.24,0.2v7.04c-0.7-0.15-1.54-0.2-2.24-0.2
		c-3.45,0-5.5,0.94-5.5,6.6v15.28h-7.97V15.3h6.44v7.44H131.01z"/>
	<path class="st0" d="M164.91,31.92h-15.76c0.47,4.71,2.24,6.45,4.62,6.45c1.77,0,2.94-1.29,3.5-3.67l6.95,2.23
		c-2.24,5.71-6.02,7.14-10.54,7.14c-8.02,0-12.54-5.06-12.54-14.19c0-10.12,5.08-15.08,11.89-15.08c8.49,0,11.89,5.75,11.89,12.8
		V31.92z M157.54,26.26c-0.05-3.87-1.82-5.8-4.1-5.8c-1.96,0-3.73,1.29-4.24,5.8H157.54z"/>
</g>
</svg>
