<?xml version="1.0" encoding="utf-8"?>
<!-- Generator: Adobe Illustrator 25.3.1, SVG Export Plug-In . SVG Version: 6.00 Build 0)  -->
<svg version="1.0" id="レイヤー_1" xmlns="http://www.w3.org/2000/svg" xmlns:xlink="http://www.w3.org/1999/xlink" x="0px"
	 y="0px" viewBox="0 0 169 55" style="enable-background:new 0 0 169 55;" xml:space="preserve">
<style type="text/css">
	.st0{fill:#F7BEC4;}
</style>
<g>
	<path class="st0" d="M22.63,18.76c1.54-2.93,4.29-4.32,7.65-4.32c4.76,0,8.44,3.03,8.44,9.62v19.15h-7.93V25.85
		c0-3.82-1.12-5.16-3.68-5.16c-2.28,0-4.06,1.49-4.06,5.16v17.36h-7.93V14.94h7.41v3.82H22.63z"/>
	<path class="st0" d="M67.91,14.94l-9.98,31.75c-1.58,5.11-3.82,8.43-9.19,8.43c-3.03,0-4.99-0.84-6.9-2.98l4.34-4.61
		c0.75,1.24,1.35,1.69,2.24,1.69c1.12,0,1.91-1.09,2.66-3.42l0.84-2.58h-1.73l-8.81-28.28h8.16l3.64,12.45
		c0.93,3.32,1.31,5.7,1.68,9.08h0.28c0.51-3.37,1.17-6.6,1.87-9.03l3.59-12.5H67.91z"/>
	<path class="st0" d="M92.85,33.89c0,1.79,0.61,2.63,1.82,2.63c0.42,0,0.56,0,0.65-0.05v5.95c-1.49,0.6-2.66,0.79-4.24,0.79
		c-3.03,0-4.43-1.09-5.08-3.22c-1.59,2.53-4.06,3.72-7.46,3.72c-5.5,0-8.86-3.12-8.86-8.43c0-5.85,4.43-8.98,11.47-8.98
		c1.03,0,2.42,0.1,3.73,0.35v-1.69c0-3.42-1.21-5.01-3.36-5.01c-2.19,0-3.4,1.44-3.92,4.61l-6.76-1.34
		c1.31-5.71,5.27-8.78,11.24-8.78c6.67,0,10.77,3.72,10.77,10.12V33.89z M84.88,32.11c-0.89-0.25-2.15-0.4-3.31-0.4
		c-2.42,0-3.96,1.24-3.96,3.37c0,1.69,1.21,2.93,3.22,2.93C83.53,38.01,84.88,36.22,84.88,32.11z"/>
	<path class="st0" d="M120.27,33.89c0,1.79,0.61,2.63,1.82,2.63c0.42,0,0.56,0,0.65-0.05v5.95c-1.49,0.6-2.66,0.79-4.24,0.79
		c-3.03,0-4.43-1.09-5.08-3.22c-1.59,2.53-4.06,3.72-7.46,3.72c-5.5,0-8.86-3.12-8.86-8.43c0-5.85,4.43-8.98,11.47-8.98
		c1.03,0,2.42,0.1,3.73,0.35v-1.69c0-3.42-1.21-5.01-3.36-5.01c-2.19,0-3.4,1.44-3.92,4.61l-6.76-1.34
		c1.31-5.71,5.27-8.78,11.24-8.78c6.67,0,10.77,3.72,10.77,10.12V33.89z M112.3,32.11c-0.89-0.25-2.15-0.4-3.31-0.4
		c-2.42,0-3.96,1.24-3.96,3.37c0,1.69,1.21,2.93,3.22,2.93C110.95,38.01,112.3,36.22,112.3,32.11z"/>
	<path class="st0" d="M133.19,18.76c1.54-2.93,4.29-4.32,7.65-4.32c4.76,0,8.44,3.03,8.44,9.62v19.15h-7.93V25.85
		c0-3.82-1.12-5.16-3.68-5.16c-2.29,0-4.06,1.49-4.06,5.16v17.36h-7.93V14.94h7.42v3.82H133.19z"/>
</g>
</svg>
