<?xml version="1.0" encoding="utf-8"?>
<!-- Generator: Adobe Illustrator 25.3.1, SVG Export Plug-In . SVG Version: 6.00 Build 0)  -->
<svg version="1.0" id="レイヤー_1" xmlns="http://www.w3.org/2000/svg" xmlns:xlink="http://www.w3.org/1999/xlink" x="0px"
	 y="0px" viewBox="0 0 169 55" style="enable-background:new 0 0 169 55;" xml:space="preserve">
<style type="text/css">
	.st0{fill:#B8CCD4;}
</style>
<g>
	<path class="st0" d="M17.97,34.69c0,2.73,1.21,3.67,3.87,3.67c0.84,0,1.73-0.2,2.24-0.4v5.95c-1.4,0.5-3.45,0.79-5.22,0.79
		c-5.04,0-8.58-2.78-8.58-8.68V21.89H6.45v-5.95h3.82v-3.77l7.69-4.71v8.48h5.74v5.95h-5.74V34.69z"/>
	<path class="st0" d="M44.17,25.27c-0.33,3.32-0.61,4.71-1.35,8.04L40.3,44.22h-9.42l-6.2-28.28h8.39l2.42,14.44
		c0.51,2.98,0.84,5.8,1.12,8.63h0.19c0.28-2.83,0.56-5.66,1.07-8.63l2.42-14.44h8.86l2.42,14.44c0.51,2.98,0.84,5.8,1.17,8.63h0.19
		c0.28-2.83,0.61-5.66,1.12-8.63l2.61-14.44h7.09l-7.09,28.28h-9.28l-2-10.91c-0.61-3.32-0.75-4.71-1.07-8.04H44.17z"/>
	<path class="st0" d="M75.32,8c0,3.03-2.1,4.91-4.62,4.91S66.23,11.18,66.23,8c0-3.08,1.96-4.76,4.48-4.76S75.32,4.93,75.32,8z
		 M74.67,44.22h-7.93V15.94h7.93V44.22z"/>
	<path class="st0" d="M89.17,34.69c0,2.73,1.21,3.67,3.87,3.67c0.84,0,1.73-0.2,2.24-0.4v5.95c-1.4,0.5-3.45,0.79-5.22,0.79
		c-5.04,0-8.58-2.78-8.58-8.68V21.89h-3.82v-5.95h3.82v-3.77l7.69-4.71v8.48h5.74v5.95h-5.74V34.69z"/>
	<path class="st0" d="M107.4,34.69c0,2.73,1.21,3.67,3.87,3.67c0.84,0,1.73-0.2,2.24-0.4v5.95c-1.4,0.5-3.45,0.79-5.22,0.79
		c-5.04,0-8.58-2.78-8.58-8.68V21.89h-3.82v-5.95h3.82v-3.77l7.69-4.71v8.48h5.74v5.95h-5.74V34.69z"/>
	<path class="st0" d="M138.83,32.56h-15.76c0.47,4.71,2.24,6.45,4.62,6.45c1.77,0,2.94-1.29,3.5-3.67l6.95,2.23
		c-2.24,5.71-6.02,7.14-10.54,7.14c-8.02,0-12.54-5.06-12.54-14.19c0-10.12,5.08-15.08,11.89-15.08c8.49,0,11.89,5.75,11.89,12.8
		V32.56z M131.46,26.9c-0.05-3.87-1.82-5.8-4.1-5.8c-1.96,0-3.73,1.29-4.24,5.8H131.46z"/>
	<path class="st0" d="M149.37,23.38c0.75-5.36,3.08-8.09,6.81-8.09c0.7,0,1.54,0.05,2.24,0.2v7.04c-0.7-0.15-1.54-0.2-2.24-0.2
		c-3.45,0-5.5,0.94-5.5,6.6v15.28h-7.97V15.94h6.44v7.44H149.37z"/>
</g>
</svg>
